<svg height="512" width="512" xmlns="http://www.w3.org/2000/svg">
<style>
path { fill: black; fill-rule: nonzero }
</style>
<g>
<g transform="translate(0.00, 0.00) scale(0.19) translate(454.00, 972.00) scale(1, -1)">
<path d="M145,-7 q-46,0,-76,24.5 q-30,24.5,-30,73.5 q0,60,78,100 q34,17,67.5,27 q33.5,10,67.5,23 q9,3,9,15 l0,75 q0,32,-20,49.5 q-20,17.5,-48,17.5 q-30,0,-50,-20.5 q-20,-20.5,-20,-53.5 q0,-35,-41,-35 q-29,0,-39,19 q0,21,17.5,43.5 q17.5,22.5,45.5,41.5 q28,19,61.5,31 q33.5,12,66.5,12 q55,0,79,-26.5 q24,-26.5,24,-85.5 l0,-231 q0,-21,11,-35 q11,-14,30,-14 q13,0,35,14 q4,0,4,-8 q0,-13,-5,-21 q-41,-35,-70,-35 q-23,0,-44,19 q-21,19,-29,40 q-5,-4,-12.5,-10.5 q-7.5,-6.5,-12.5,-10.5 q-21,-16,-45.5,-27.5 q-24.5,-11.5,-53.5,-11.5 z M183,50 q28,0,53,16 q25,16,25,34 l0,103 q-26,-10,-49.5,-18 q-23.5,-8,-37.5,-13 q-18,-7,-34.5,-25 q-16.5,-18,-16.5,-41 q0,-30,18.5,-43 q18.5,-13,41.5,-13 z"/>
</g>
<g transform="translate(256.00, 0.00) scale(0.19) translate(394.00, 972.00) scale(1, -1)">
<path d="M33,-3 q-4,4,-4,17 q0,12,4,12 q8,0,22,3 q14,3,26,8 q12,5,13,9 q4,14,5.5,32 q1.5,18,1.5,38 l0,189 q0,38,-14,54 q-10,12,-23.5,16 q-13.5,4,-24,4.5 q-10.5,0.5,-10.5,2.5 q0,24,6,25 q53,8,86,14.5 q33,6.5,41,8.5 l16,4 q4,1,5,-8 q1,-9,0,-13 q-2,-14,-3,-24 q-1,-10,-1,-16 q0,-4,2,-4 q1,0,3,2 q23,24,62.5,45.5 q39.5,21.5,75.5,21.5 q70,0,98,-50 q28,-50,28,-162 l0,-91 q0,-29,2,-51 q2,-22,6,-38 q2,-4,14,-9 q12,-5,26,-8 q14,-3,20,-3 q3,0,4,-12 q1,-12,-1,-17 l-107,5 l-105,-5 q-4,4,-4,17 q0,12,4,12 q8,0,21,3 q13,3,24,8 q11,5,12,9 q4,14,5.5,32 q1.5,18,1.5,38 l0,100 q0,93,-24,127 q-24,34,-78,34 q-21,0,-42,-11.5 q-21,-11.5,-35,-26.5 q-14,-15,-14,-28 l0,-176 q0,-29,2,-51 q2,-22,6,-38 q2,-4,14,-9 q12,-5,26,-8 q14,-3,20,-3 q3,0,4,-12 q1,-12,-1,-17 l-107,5 l-109,-5 z"/>
</g>
<g transform="translate(0.00, 256.00) scale(0.19) translate(410.50, 972.00) scale(1, -1)">
<path d="M256,-7 q-60,0,-110,30 q-50,30,-79.5,81 q-29.5,51,-29.5,112 q0,62,28.5,112 q28.5,50,77.5,79.5 q49,29.5,111,29.5 q60,0,109.5,-30 q49.5,-30,79,-80 q29.5,-50,29.5,-111 q0,-61,-29,-112 q-29,-51,-77.5,-81 q-48.5,-30,-109.5,-30 z M265,32 q36,0,63,23 q27,23,42.5,62 q15.5,39,15.5,85 q0,54,-20,98.5 q-20,44.5,-52.5,71 q-32.5,26.5,-70.5,26.5 q-35,0,-62.5,-22.5 q-27.5,-22.5,-42.5,-60 q-15,-37.5,-15,-84.5 q0,-54,19.5,-99.5 q19.5,-45.5,52,-72.5 q32.5,-27,70.5,-27 z"/>
</g>
<g transform="translate(256.00, 256.00) scale(0.19) translate(410.00, 972.00) scale(1, -1)">
<path d="M21,-226 q-4,4,-4,16 q0,13,4,13 q8,0,22,3 q14,3,26,8 q12,5,13,9 q4,14,5.5,32 q1.5,18,1.5,38 l0,413 q0,38,-14,54 q-10,12,-23.5,16 q-13.5,4,-24,4.5 q-10.5,0.5,-10.5,2.5 q0,24,6,25 q106,16,136,25 l7,2 q5,0,4,-10.5 q-1,-10.5,-2,-17.5 l-1,-6 q10,7,28,15 q18,8,38.5,14 q20.5,6,35.5,6 q68,0,113.5,-30.5 q45.5,-30.5,68,-77 q22.5,-46.5,22.5,-94.5 q0,-48,-18,-91.5 q-18,-43.5,-49,-77.5 q-31,-34,-70.5,-53.5 q-39.5,-19.5,-81.5,-19.5 q-31,0,-47,4.5 q-16,4.5,-37,14.5 q-4,-4,-4,-13 l0,-86 q0,-29,2,-51 q2,-22,6,-38 q2,-4,14,-9 q12,-5,26,-8 q14,-3,20,-3 q3,0,4,-12.5 q1,-12.5,-1,-16.5 l-107,5 l-109,-5 z M258,34 q40,0,68.5,24.5 q28.5,24.5,44.5,64 q16,39.5,16,83.5 q0,56,-20.5,96.5 q-20.5,40.5,-54.5,62.5 q-34,22,-75,22 q-31,0,-51,-16.5 q-20,-16.5,-20,-47.5 l0,-225 q0,-27,29,-45.5 q29,-18.5,63,-18.5 z"/>
</g>
</g>
</svg>