<svg height="512" width="512" xmlns="http://www.w3.org/2000/svg">
<style>
path { fill: black; fill-rule: nonzero }
</style>
<g>
<g transform="translate(0.00, 0.00) scale(0.11) translate(558.00, 1853.00) scale(1, -1)">
<path d="M238.5,62.5 q-115.5,93.5,-115.5,255 q0,161.5,118.5,255 q118.5,93.5,331.5,93.5 l349,0 l0,10 q0,307,-308,307 q-96,0,-163.5,-46 q-67.5,-46,-92.5,-118 q-6,-20,-24,-20 l-129,0 q-23,0,-21,20 q16,139,132,223 q116,84,298,84 q238,0,365,-117.5 q127,-117.5,127,-332.5 l0,-656 q0,-20,-21,-20 l-112,0 q-20,0,-23,20 l-18,113 q-12,-19,-53,-52.5 q-41,-33.5,-82,-54.5 q-108,-57,-244,-57 q-199,0,-314.5,93.5 z M307,317 q0,-100,66.5,-152 q66.5,-52,189.5,-52 q66,0,127.5,22.5 q61.5,22.5,101,53 q39.5,30.5,70.5,62.5 q31,32,45.5,53.5 q14.5,21.5,14.5,23.5 l0,194 l-349,0 q-266,0,-266,-205 z"/>
</g>
<g transform="translate(256.00, 0.00) scale(0.11) translate(506.50, 1853.00) scale(1, -1)">
<path d="M205,20 l0,1055 q0,21,20,21 l113,0 q20,0,22,-21 l19,-112 q12,17,52,51.5 q40,34.5,78,55.5 q98,56,228,56 q207,0,339,-128 q132,-128,132,-353 l0,-625 q0,-20,-20,-20 l-144,0 q-20,0,-20,20 l0,625 q0,162,-84,250 q-84,88,-213,88 q-59,0,-116.5,-22.5 q-57.5,-22.5,-95.5,-53 q-38,-30.5,-67,-62.5 q-59,-63,-59,-77 l0,-748 q0,-20,-20,-20 l-144,0 q-20,0,-20,20 z"/>
</g>
<g transform="translate(0.00, 256.00) scale(0.11) translate(547.50, 1853.00) scale(1, -1)">
<path d="M655.5,-31 q-239.5,0,-386,150.5 q-146.5,150.5,-146.5,430 q0,279.5,146.5,428 q146.5,148.5,386,148.5 q239.5,0,386,-148.5 q146.5,-148.5,146.5,-428 q0,-279.5,-146.5,-430 q-146.5,-150.5,-386,-150.5 z M655.5,983 q-155.5,0,-252,-108.5 q-96.5,-108.5,-96.5,-324.5 q0,-216,96.5,-326.5 q96.5,-110.5,252,-110.5 q155.5,0,252,110.5 q96.5,110.5,96.5,326.5 q0,216,-96.5,324.5 q-96.5,108.5,-252,108.5 z"/>
</g>
<g transform="translate(256.00, 256.00) scale(0.11) translate(532.50, 1853.00) scale(1, -1)">
<path d="M205,-317 l0,1392 q0,20,20,21 l113,0 q20,0,22,-21 l19,-112 q11,17,50.5,51.5 q39.5,34.5,75.5,55.5 q93,56,212,56 q219,0,360.5,-148.5 q141.5,-148.5,141.5,-428.5 q0,-280,-145.5,-430 q-145.5,-150,-377.5,-150 q-78,0,-154.5,15.5 q-76.5,15.5,-115.5,31.5 l-37,15 l0,-348 q0,-20,-20,-21 l-144,0 q-20,1,-20,21 z M389,174 q133,-61,291,-61 q158,0,256,108.5 q98,108.5,98,324.5 q0,216,-90,326.5 q-90,110.5,-237,110.5 q-143,0,-261,-138 q-57,-66,-57,-77 l-0,-594 z"/>
</g>
</g>
</svg>