<svg height="512" width="512" xmlns="http://www.w3.org/2000/svg">
<style>
path { fill: black; fill-rule: nonzero }
</style>
<g>
<g transform="translate(0.00, 0.00) scale(0.12) translate(451.00, 1567.00) scale(1, -1)">
<path d="M639,1116 q92,0,164,-49.5 q72,-49.5,112,-142.5 l11,0 l67,172 l127,0 l-233,-1096 l-133,0 l26,209 l-8,0 q-179,-229,-377,-229 q-139,0,-218,99 q-79,99,-79,271 q0,208,71,386 q71,178,196,279 q125,101,274,101 z M449,119 q97,0,193,92.5 q96,92.5,156,241 q60,148.5,60,297.5 q0,103,-56,164 q-56,61,-147,61 q-104,0,-193.5,-86 q-89.5,-86,-140.5,-233 q-51,-147,-51,-310 q0,-114,47,-170.5 q47,-56.5,132,-56.5 z"/>
</g>
<g transform="translate(256.00, 0.00) scale(0.12) translate(438.50, 1567.00) scale(1, -1)">
<path d="M729,0 l148,692 q20,104,20,144 q0,63,-35.5,101 q-35.5,38,-113.5,38 q-89,0,-173.5,-60 q-84.5,-60,-149,-171 q-64.5,-111,-97.5,-269 l-101,-475 l-168,0 l234,1096 l139,0 l-22,-203 l10,0 q96,122,185.5,172.5 q89.5,50.5,185.5,50.5 q127,0,200.5,-69.5 q73.5,-69.5,73.5,-194.5 q0,-79,-23,-180 l-143,-672 l-170,-0 z"/>
</g>
<g transform="translate(0.00, 256.00) scale(0.12) translate(455.00, 1567.00) scale(1, -1)">
<path d="M643,1110 q190,0,300,-112.5 q110,-112.5,110,-309.5 q0,-188,-72,-355 q-72,-167,-195,-258 q-123,-91,-278,-91 q-192,0,-301,113 q-109,113,-109,309 q0,190,73,357.5 q73,167.5,197,257 q124,89.5,275,89.5 z M879,711 q0,115,-62.5,186.5 q-62.5,71.5,-169.5,71.5 q-109,0,-195.5,-74 q-86.5,-74,-134,-205.5 q-47.5,-131.5,-47.5,-292.5 q0,-131,63.5,-202.5 q63.5,-71.5,182.5,-71.5 q104,0,187,73 q83,73,129.5,207.5 q46.5,134.5,46.5,307.5 z"/>
</g>
<g transform="translate(256.00, 256.00) scale(0.12) translate(438.50, 1567.00) scale(1, -1)">
<path d="M545,-20 q-97,0,-170,50 q-73,50,-113,140 l-10,0 l-4,-38 q-3,-25,-10.5,-70 q-7.5,-45,-114.5,-554 l-166,0 l336,1588 l139,0 l-26,-209 l8,0 q179,227,372,227 q137,0,216,-97.5 q79,-97.5,79,-273.5 q0,-212,-69,-389 q-69,-177,-191,-275.5 q-122,-98.5,-276,-98.5 z M731,975 q-96,0,-195.5,-95 q-99.5,-95,-158,-239 q-58.5,-144,-58.5,-295 q0,-110,55.5,-168.5 q55.5,-58.5,160.5,-58.5 q99,0,184.5,81 q85.5,81,137.5,230.5 q52,149.5,52,317.5 q0,227,-178,227 z"/>
</g>
</g>
</svg>