<svg height="512" width="512" xmlns="http://www.w3.org/2000/svg">
<style>
path { fill: black; fill-rule: nonzero }
</style>
<g>
<g transform="translate(0.00, 0.00) scale(0.26) translate(245.50, 730.00) scale(1, -1)">
<path d="M324,106 c-58,-41,-77,-55,-110,-55 c-24,0,-45,7,-60,23 c-12,12,-20,27,-20,53 c0,30,11,69,98,103 c21,8,57,20,92,30 z M483,64 l-5,-5 c-8,-8,-21,-17,-37,-17 c-22,0,-33,18,-33,59 l0,216 c0,126,-50,174,-155,174 c-102,0,-176,-50,-195,-126 c3,-26,19,-43,47,-43 c27,0,45,17,54,48 l20,69 c20,5,37,6,51,6 c66,0,94,-24,94,-121 l0,-27 c-40,-9,-82,-22,-113,-33 c-135,-49,-166,-95,-166,-152 c0,-83,61,-127,134,-127 c59,0,92,27,147,82 c8,-47,39,-77,96,-77 c32,0,58,10,81,52 z"/>
</g>
<g transform="translate(256.00, 0.00) scale(0.26) translate(197.00, 730.00) scale(1, -1)">
<path d="M506,50 c-1,50,-2,114,-2,160 l0,96 c0,131,-42,185,-128,185 c-62,0,-130,-37,-179,-91 l-8,81 l-15,10 l-140,-61 l0,-35 l79,-9 c2,-40,3,-70,3,-125 l0,-51 c0,-45,-1,-110,-2,-160 l-74,-14 l0,-36 l232,0 l0,36 l-69,14 c-1,50,-2,116,-2,160 l0,149 c51,42,90,60,136,60 c59,0,83,-29,83,-121 l0,-88 c0,-46,-1,-111,-2,-160 l-74,-14 l0,-36 l232,0 l0,36 z"/>
</g>
<g transform="translate(0.00, 256.00) scale(0.26) translate(225.50, 730.00) scale(1, -1)">
<path d="M274,445 c87,0,135,-74,135,-209 c0,-134,-48,-206,-135,-206 c-86,0,-134,72,-134,206 c0,135,48,209,134,209 z M274,491 c-115,0,-229,-89,-229,-254 c0,-166,113,-252,229,-252 c117,0,230,86,230,252 c0,165,-114,254,-230,254 z"/>
</g>
<g transform="translate(256.00, 256.00) scale(0.26) translate(208.50, 730.00) scale(1, -1)">
<path d="M202,379 c51,42,90,55,121,55 c73,0,125,-72,125,-200 c0,-129,-61,-192,-136,-192 c-37,0,-73,15,-110,51 z M190,481 l-15,10 l-140,-61 l0,-35 l79,-9 c2,-40,3,-70,3,-125 l0,-289 c0,-54,-1,-107,-2,-162 l-80,-14 l0,-35 l257,0 l0,35 l-91,15 c-1,54,-2,108,-2,161 l0,79 c42,-50,87,-66,133,-66 c117,0,206,103,206,257 c0,155,-84,249,-191,249 c-53,0,-104,-23,-151,-74 z"/>
</g>
</g>
</svg>