<svg height="512" width="512" xmlns="http://www.w3.org/2000/svg">
<style>
path { fill: black; fill-rule: nonzero }
</style>
<g>
<g transform="translate(0.00, 0.00) scale(0.07) translate(1454.50, 2330.00) scale(1, -1)">
<path d="M68,241 q0,96,34,148 q34,52,116,86 q58,25,146.5,37 q88.5,12,166.5,12 q41,0,80,-3 l0,54 q0,92,-20.5,167.5 q-20.5,75.5,-80.5,108.5 q-21,12,-55.5,18 q-34.5,6,-72.5,6 q-34,0,-67,-7 l-34,-182 q-28,-15,-61,-15 q-26,0,-53.5,15 q-27.5,15,-45.5,40 q-18,25,-18,53 q0,53,84,100 q50,27,118.5,49 q68.5,22,131,34.5 q62.5,12.5,93.5,12.5 q138,0,199,-81 q61,-81,61,-220 l0,-482 q37,-38,79,-62.5 q42,-24.5,94,-36.5 l-12,-58 q-56,-26,-115.5,-41.5 q-59.5,-15.5,-112.5,-18.5 q-16,47,-35.5,84 q-19.5,37,-49.5,73 q-22,-32,-76,-69.5 q-54,-37.5,-118.5,-62.5 q-64.5,-25,-117.5,-25 q-88,0,-146,40.5 q-58,40.5,-85,101.5 q-27,61,-27,124 z M356,112 q13,-6,34,-6 q45,0,111.5,18.5 q66.5,18.5,109.5,40.5 l0,293 q-99,-7,-171,-25 q-72,-18,-113,-38.5 q-41,-20.5,-56,-37.5 q-19,-19,-19,-66 q0,-34,14.5,-72 q14.5,-38,38.5,-67.5 q24,-29.5,51,-39.5 z"/>
</g>
<g transform="translate(256.00, 0.00) scale(0.07) translate(1340.00, 2330.00) scale(1, -1)">
<path d="M62,853 l9,47 l274,65 l36,-165 q89,70,197.5,121.5 q108.5,51.5,188.5,51.5 q65,0,121.5,-33.5 q56.5,-33.5,93,-113 q36.5,-79.5,36.5,-208.5 l0,-492 l168,-44 l-17,-82 l-452,0 l17,87 l105,44 l0,419 q0,103,-28,169 q-28,66,-67,95 q-20,13,-39,13 q-40,0,-142.5,-24 q-102.5,-24,-172.5,-48 q1,-6,3,-25.5 q2,-19.5,2,-31.5 l0,-572 l169,-45 l-18,-81 l-489,0 l17,88 l142,48 l0,639 l-154,78 z"/>
</g>
<g transform="translate(0.00, 256.00) scale(0.07) translate(1429.00, 2330.00) scale(1, -1)">
<path d="M73,437 q0,139,56.5,263 q56.5,124,157,199.5 q100.5,75.5,227.5,75.5 q123,0,221,-50.5 q98,-50.5,156,-154.5 q58,-104,58,-258 q0,-140,-57.5,-264 q-57.5,-124,-156.5,-198.5 q-99,-74.5,-216,-74.5 q-128,0,-228.5,49.5 q-100.5,49.5,-159,153.5 q-58.5,104,-58.5,259 z M568,107 q45,0,87,13.5 q42,13.5,68,39.5 q26,26,39,91.5 q13,65.5,13,123.5 q0,142,-43.5,248.5 q-43.5,106.5,-118.5,163 q-75,56.5,-167,56.5 q-57,0,-89,-13.5 q-32,-13.5,-58,-38.5 q-22,-25,-37,-90.5 q-15,-65.5,-15,-128.5 q0,-116,35.5,-222.5 q35.5,-106.5,108,-174.5 q72.5,-68,177.5,-68 z"/>
</g>
<g transform="translate(256.00, 256.00) scale(0.07) translate(1389.00, 2330.00) scale(1, -1)">
<path d="M617,-397 l-16,-78 l-571,0 l15,87 l144,49 l0,1114 l-154,78 l9,47 l274,60 l34,-135 q68,47,115,75.5 q47,28.5,104.5,50.5 q57.5,22,113.5,22 q105,0,181,-55 q76,-55,116.5,-160 q40.5,-105,40.5,-251 q0,-135,-55.5,-257.5 q-55.5,-122.5,-150.5,-196.5 q-45,-35,-98.5,-56.5 q-53.5,-21.5,-109.5,-21.5 q-76,0,-139,26 q-63,26,-102,79 l0,-429 l249,-48 z M364,770 q4,-31,4,-72 l0,-458 q52,-64,135,-93 q83,-29,166,-29 q63,0,93,15 q19,9,39,51 q20,42,32.5,106 q12.5,64,12.5,135 q0,135,-41.5,233 q-41.5,98,-109.5,151 q-28,22,-67,22 q-42,0,-120.5,-18.5 q-78.5,-18.5,-143.5,-42.5 z"/>
</g>
</g>
</svg>