<svg height="799" width="720" xmlns="http://www.w3.org/2000/svg">
<g transform="translate(0, 734) scale(1, -1)">
<path d="M265,49 C168,49,114,123,114,196 C114,246,133,306,202,348 C235,310,266,274,311,219 C345,181,377,145,414,104 C376,70,322,49,265,49 z" fill="none" stroke="black"/>
<path d="M268,649 C317,649,355,613,355,555 C355,497,311,453,249,410 C240,420,231,431,222,443 C185,489,177,520,177,556 C177,609,217,649,268,649 z" fill="none" stroke="black"/>
<path d="M675,389 L675,429 L472,429 L472,389 L551,376 C533,297,506,232,468,171 C429,212,394,250,353,294 C318,332,294,359,273,383 C375,438,421,487,421,556 C421,631,368,684,269,684 C175,684,105,630,105,542 C105,489,124,438,174,381 L178,376 C78,326,27,259,27,169 C27,68,113,-15,238,-15 C335,-15,399,24,442,73 L476,36 C509,2,540,-10,593,-10 C619,-10,639,-7,669,0 L673,44 L577,56 C547,88,520,116,496,142 C542,211,576,284,599,375 L675,389 z" fill="none" stroke="black"/>
</g>
</svg>