<svg height="799" width="720" xmlns="http://www.w3.org/2000/svg">
<style>
path { fill: none; stroke: black; stroke-width: 3; }
</style>
<g transform="translate(0, 734) scale(1, -1)">
<path d="M265,49 c-97,0,-151,74,-151,147 c0,50,19,110,88,152 c33,-38,64,-74,109,-129 c34,-38,66,-74,103,-115 c-38,-34,-92,-55,-149,-55 z"/>
<path d="M268,649 c49,0,87,-36,87,-94 c0,-58,-44,-102,-106,-145 c-9,10,-18,21,-27,33 c-37,46,-45,77,-45,113 c0,53,40,93,91,93 z"/>
<path d="M675,389 l0,40 l-203,0 l0,-40 l79,-13 c-18,-79,-45,-144,-83,-205 c-39,41,-74,79,-115,123 c-35,38,-59,65,-80,89 c102,55,148,104,148,173 c0,75,-53,128,-152,128 c-94,0,-164,-54,-164,-142 c0,-53,19,-104,69,-161 l4,-5 c-100,-50,-151,-117,-151,-207 c0,-101,86,-184,211,-184 c97,0,161,39,204,88 l34,-37 c33,-34,64,-46,117,-46 c26,0,46,3,76,10 l4,44 l-96,12 c-30,32,-57,60,-81,86 c46,69,80,142,103,233 l76,14 z"/>
</g>
</svg>