<svg height="2406" width="1290" xmlns="http://www.w3.org/2000/svg">
<style>
path { fill: black; fill-rule: nonzero }
</style>
<rect fill="#eee" height="2406" width="1290"/>
<g transform="translate(0, 1853) scale(1, -1)">
<path d="M238.5,62.5 q-115.5,93.5,-115.5,255 q0,161.5,118.5,255 q118.5,93.5,331.5,93.5 l349,0 l0,10 q0,307,-308,307 q-96,0,-163.5,-46 q-67.5,-46,-92.5,-118 q-6,-20,-24,-20 l-129,0 q-23,0,-21,20 q16,139,132,223 q116,84,298,84 q238,0,365,-117.5 q127,-117.5,127,-332.5 l0,-656 q0,-20,-21,-20 l-112,0 q-20,0,-23,20 l-18,113 q-12,-19,-53,-52.5 q-41,-33.5,-82,-54.5 q-108,-57,-244,-57 q-199,0,-314.5,93.5 z M307,317 q0,-100,66.5,-152 q66.5,-52,189.5,-52 q66,0,127.5,22.5 q61.5,22.5,101,53 q39.5,30.5,70.5,62.5 q31,32,45.5,53.5 q14.5,21.5,14.5,23.5 l0,194 l-349,0 q-266,0,-266,-205 z"/>
</g>
</svg>