<svg height="1000" width="549" xmlns="http://www.w3.org/2000/svg">
<style>
path { fill: black; fill-rule: nonzero }
</style>
<rect fill="#eee" height="1000" width="549"/>
<g transform="translate(0, 730) scale(1, -1)">
<path d="M274,445 c87,0,135,-74,135,-209 c0,-134,-48,-206,-135,-206 c-86,0,-134,72,-134,206 c0,135,48,209,134,209 z M274,491 c-115,0,-229,-89,-229,-254 c0,-166,113,-252,229,-252 c117,0,230,86,230,252 c0,165,-114,254,-230,254 z M375,586 c31,0,57,23,57,55 c0,32,-26,55,-57,55 c-32,0,-58,-23,-58,-55 c0,-32,26,-55,58,-55 z M173,586 c32,0,58,23,58,55 c0,32,-26,55,-58,55 c-31,0,-57,-23,-57,-55 c0,-32,26,-55,57,-55 z"/>
</g>
</svg>