<svg height="512" width="512" xmlns="http://www.w3.org/2000/svg">
<style>
path { fill: black; fill-rule: nonzero; }
</style>
<g transform="translate(8 8) scale(0.9802371) translate(-21 491) scale(1 -1)">
<path d="M324,106 c-58,-41,-77,-55,-110,-55 c-24,0,-45,7,-60,23 c-12,12,-20,27,-20,53 c0,30,11,69,98,103 c21,8,57,20,92,30 z M483,64 l-5,-5 c-8,-8,-21,-17,-37,-17 c-22,0,-33,18,-33,59 l0,216 c0,126,-50,174,-155,174 c-102,0,-176,-50,-195,-126 c3,-26,19,-43,47,-43 c27,0,45,17,54,48 l20,69 c20,5,37,6,51,6 c66,0,94,-24,94,-121 l0,-27 c-40,-9,-82,-22,-113,-33 c-135,-49,-166,-95,-166,-152 c0,-83,61,-127,134,-127 c59,0,92,27,147,82 c8,-47,39,-77,96,-77 c32,0,58,10,81,52 z"/>
</g>
</svg>