<svg height="1331" width="816" xmlns="http://www.w3.org/2000/svg">
<style>
path { fill: black; fill-rule: nonzero }
</style>
<g transform="translate(0, 972) scale(1, -1)">
<path d="M604,-136 q-47,0,-104,26 q-61,28,-117.5,61 q-56.5,33,-105.5,49 q-36,11,-74,37 q-38,26,-75,66 q-37,40,-60.5,99.5 q-23.5,59.5,-23.5,125.5 q0,70,25,131.5 q25,61.5,68.5,108 q43.5,46.5,101.5,73 q58,26.5,124,26.5 q66,0,124,-26.5 q58,-26.5,102,-73 q44,-46.5,69,-108 q25,-61.5,25,-131.5 q0,-64,-20,-119.5 q-20,-55.5,-53,-98.5 q-33,-43,-72.5,-70 q-39.5,-27,-78.5,-35 q14,-7,32.5,-17 q18.5,-10,42.5,-24 q32,-18,55.5,-28.5 q23.5,-10.5,47.5,-15 q24,-4.5,55,-4.5 q29,0,46.5,4 q17.5,4,21.5,4 q12,0,12,-20 l0,-5 q-67,-35,-168,-35 z M379,33 q64,0,111,39 q47,39,72.5,102 q25.5,63,25.5,135 q0,63,-16.5,119.5 q-16.5,56.5,-48,101 q-31.5,44.5,-76,70 q-44.5,25.5,-99.5,25.5 q-63,0,-110,-38.5 q-47,-38.5,-73,-101.5 q-26,-63,-26,-135 q0,-63,16.5,-120 q16.5,-57,48,-101.5 q31.5,-44.5,76,-70 q44.5,-25.5,99.5,-25.5 z"/>
</g>
</svg>