<svg height="2059" width="1377" xmlns="http://www.w3.org/2000/svg">
<style>
path { fill: black; fill-rule: nonzero }
</style>
<g transform="translate(0, 1567) scale(1, -1)">
<path d="M737,1348 q-105,0,-163,-60 q-58,-60,-58,-170 q0,-120,82,-235 q139,71,191,110 q52,39,83,85 q31,46,31,104 q0,77,-42.5,121.5 q-42.5,44.5,-123.5,44.5 z M471,119 q87,0,168,33 q81,33,195,124 l-306,433 q-128,-67,-184,-116 q-56,-49,-85.5,-107.5 q-29.5,-58.5,-29.5,-131.5 q0,-106,66.5,-170.5 q66.5,-64.5,175.5,-64.5 z M66,342 q0,148,90,257.5 q90,109.5,303,211.5 q-103,165,-103,309 q0,164,106,264.5 q106,100.5,281,100.5 q149,0,236.5,-79 q87.5,-79,87.5,-212 q0,-78,-32.5,-137 q-32.5,-59,-87.5,-108 q-55,-49,-127.5,-90 q-72.5,-41,-153.5,-83 l278,-389 q127,110,199,295 l168,0 q-101,-236,-283,-412 l203,-270 l-201,0 l-117,166 q-120,-100,-230,-143 q-110,-43,-247,-43 q-168,0,-269,96 q-101,96,-101,266 z"/>
</g>
</svg>